<svg xmlns="http://www.w3.org/2000/svg" viewBox="0 0 84.79 30.76"><g id="Layer_2" data-name="Layer 2"><g id="Layer_1-2" data-name="Layer 1"><path d="M46.84,30.76h-.53v-1h.52c.59,0,1.18,0,1.78,0l0,1C48.05,30.74,47.44,30.76,46.84,30.76ZM44,30.67c-.78-.05-1.56-.11-2.34-.2l.11-1c.76.08,1.53.15,2.29.19Zm7-.09-.09-1c.76-.06,1.53-.15,2.29-.25l.13,1C52.55,30.43,51.78,30.51,51,30.58Zm-11.7-.43c-.78-.12-1.55-.26-2.31-.43l.21-1c.75.16,1.5.31,2.26.43ZM55.65,30l-.18-1c.75-.14,1.5-.29,2.25-.46l.23,1C57.18,29.67,56.42,29.82,55.65,30Zm-20.94-.79c-.76-.2-1.51-.42-2.26-.66l.31-1c.73.23,1.46.45,2.21.65Zm25.51-.25L60,28c.74-.21,1.47-.43,2.2-.67l.32,1C61.72,28.49,61,28.71,60.22,28.92Zm-30-1.18c-.73-.27-1.45-.56-2.17-.87l.4-.93c.7.3,1.41.59,2.13.86Zm34.45-.27-.36-.95c.72-.27,1.43-.56,2.14-.86l.39.93C66.14,26.9,65.41,27.19,64.68,27.47ZM25.92,25.89c-.7-.34-1.4-.69-2.08-1.07l.48-.89c.67.37,1.35.72,2,1.06ZM69,25.61l-.44-.9q1-.51,2-1.05l.48.88C70.39,24.92,69.69,25.27,69,25.61Zm-47.19-2q-1-.6-2-1.26l.57-.84c.63.43,1.28.84,1.94,1.24Zm51.31-.27-.52-.87c.65-.39,1.3-.81,1.94-1.23l.56.84Q74.11,22.77,73.11,23.38ZM17.91,21c-.63-.46-1.25-.94-1.86-1.43l.64-.79c.59.49,1.2.95,1.81,1.41ZM77,20.77l-.6-.82c.61-.45,1.22-.92,1.81-1.41l.64.79C78.26,19.82,77.64,20.3,77,20.77ZM14.26,18.09c-.58-.52-1.16-1.05-1.72-1.6l.71-.72c.55.53,1.11,1.06,1.68,1.56Zm66.38-.29L80,17.05c.57-.52,1.12-1,1.67-1.58l.71.71C81.79,16.74,81.22,17.27,80.64,17.8Zm-69.74-3c-.53-.57-1.06-1.15-1.56-1.75l.76-.65c.5.58,1,1.15,1.54,1.71ZM84,14.49l-.75-.68L84,12.9l.76.66ZM7.85,11.25c-.48-.61-.94-1.24-1.39-1.88l.82-.59c.44.63.9,1.25,1.37,1.85ZM5.15,7.41c-.42-.66-.82-1.33-1.21-2l.88-.5c.38.67.78,1.33,1.19,2ZM2.84,3.33c-.36-.69-.69-1.4-1-2.12L2.75.8c.31.7.64,1.4,1,2.08Z"/><polygon points="0 5.77 0.96 6.08 2.49 1.34 7.1 3.21 7.48 2.27 1.86 0 0 5.77"/></g></g></svg>